<svg xmlns="http://www.w3.org/2000/svg" version="1.1" xmlns:xlink="http://www.w3.org/1999/xlink" xmlns:svgjs="http://svgjs.dev/svgjs" width="1500" height="359" viewBox="0 0 1500 359"><g transform="matrix(1,0,0,1,-0.9090909090909918,-0.6899477636266624)"><svg viewBox="0 0 396 95" data-background-color="#3d3d3d" preserveAspectRatio="xMidYMid meet" height="359" width="1500" xmlns="http://www.w3.org/2000/svg" xmlns:xlink="http://www.w3.org/1999/xlink"><g id="tight-bounds" transform="matrix(1,0,0,1,0.2400000000000091,0.1825767062521777)"><svg viewBox="0 0 395.52 94.63484658749563" height="94.63484658749563" width="395.52"><g><svg viewBox="0 0 554.1789245400012 132.5966765419355" height="94.63484658749563" width="395.52"><g><rect width="8.652463914849447" height="96.42522425806452" x="418.17042909646455" y="18.08572614193549" fill="#b8f423" opacity="1" stroke-width="0" stroke="transparent" fill-opacity="1" class="rect-yte-0" data-fill-palette-color="primary" rx="1%" id="yte-0" data-palette-color="#b8f423"></rect></g><g transform="matrix(1,0,0,1,0,18.32558988387097)"><svg viewBox="0 0 395.52000000000004 95.94549677419356" height="95.94549677419356" width="395.52000000000004"><g id="textblocktransform"><svg viewBox="0 0 395.52000000000004 95.94549677419356" height="95.94549677419356" width="395.52000000000004" id="textblock"><g><svg viewBox="0 0 395.52000000000004 95.94549677419356" height="95.94549677419356" width="395.52000000000004"><g transform="matrix(1,0,0,1,0,0)"><svg width="395.52000000000004" viewBox="0.5 -37 159.99 37.6" height="95.94549677419356" data-palette-color="#b8f423"><g class="wordmark-text-0" data-fill-palette-color="primary" id="text-0"><path d="M16 0L11.25 0 11.25-30.8 0.5-30.8 0.5-35 26.75-35 26.75-30.8 16-30.8 16 0ZM41.2 0.6L41.2 0.6Q37.95 0.6 35.3-1.05 32.65-2.7 31.07-5.73 29.5-8.75 29.5-12.85L29.5-12.85Q29.5-16.75 31.07-19.85 32.65-22.95 35.42-24.78 38.2-26.6 41.8-26.6L41.8-26.6Q44.05-26.6 45.87-25.83 47.7-25.05 49.05-23.9L49.05-23.9 49.05-26 53.15-26 53.15-6.3Q53.15-4.4 54.07-3.83 55-3.25 56.1-3.25L56.1-3.25 55.15 0.25Q50.35 0.25 49.35-3.65L49.35-3.65Q48.2-2.05 46.22-0.73 44.25 0.6 41.2 0.6ZM42.2-3.4L42.2-3.4Q44.1-3.4 45.8-4.33 47.5-5.25 48.65-6.65L48.65-6.65 48.65-20.6Q47.3-21.55 45.67-22.13 44.05-22.7 42.25-22.7L42.25-22.7Q39.85-22.7 38.02-21.48 36.2-20.25 35.15-18.07 34.1-15.9 34.1-13L34.1-13Q34.1-10.2 35.15-8.03 36.2-5.85 38.05-4.63 39.9-3.4 42.2-3.4ZM69.09 0.6L69.09 0.6Q66.14 0.6 63.77-0.15 61.39-0.9 59.84-2.1L59.84-2.1 61.74-5.85Q63.05-4.75 65.02-4.03 67-3.3 69.25-3.3L69.25-3.3Q72.05-3.3 73.47-4.23 74.89-5.15 74.89-6.6L74.89-6.6Q74.89-7.65 74.37-8.45 73.84-9.25 72.44-10.03 71.05-10.8 68.39-11.7L68.39-11.7Q64.75-12.95 62.92-14.68 61.09-16.4 61.09-19.45L61.09-19.45Q61.09-22.45 63.72-24.53 66.34-26.6 71-26.6L71-26.6Q73.5-26.6 75.44-26.08 77.39-25.55 78.94-24.75L78.94-24.75 77.69-21.05Q76.34-21.85 74.62-22.35 72.89-22.85 70.8-22.85L70.8-22.85Q68.19-22.85 66.84-21.8 65.5-20.75 65.5-19.5L65.5-19.5Q65.5-18.3 66.55-17.45 67.59-16.6 70.64-15.6L70.64-15.6Q75.59-13.95 77.55-11.95 79.5-9.95 79.5-6.95L79.5-6.95Q79.5-3.45 76.67-1.43 73.84 0.6 69.09 0.6ZM106.54-2.5L103.44 0.5 89.99-13.35 89.99 0 85.49 0 85.49-37 89.99-37 89.99-15.85 101.74-26.5 104.34-23.65 94.29-14.75 106.54-2.5ZM132.09-2.5L128.99 0.5 115.54-13.35 115.54 0 111.04 0 111.04-37 115.54-37 115.54-15.85 127.29-26.5 129.89-23.65 119.84-14.75 132.09-2.5ZM147.54 0.6L147.54 0.6Q143.84 0.6 140.89-1.13 137.94-2.85 136.26-5.93 134.59-9 134.59-13L134.59-13Q134.59-17.2 136.29-20.25 137.99-23.3 140.94-24.95 143.89-26.6 147.54-26.6L147.54-26.6Q151.19-26.6 154.11-24.95 157.04-23.3 158.76-20.28 160.49-17.25 160.49-13.1L160.49-13.1Q160.49-8.95 158.79-5.88 157.09-2.8 154.16-1.1 151.24 0.6 147.54 0.6ZM147.54-3.4L147.54-3.4Q151.49-3.4 153.69-6.08 155.89-8.75 155.89-13L155.89-13Q155.89-15.6 154.79-17.78 153.69-19.95 151.81-21.28 149.94-22.6 147.54-22.6L147.54-22.6Q143.59-22.6 141.39-20 139.19-17.4 139.19-13.1L139.19-13.1Q139.19-10.5 140.29-8.28 141.39-6.05 143.26-4.73 145.14-3.4 147.54-3.4Z" fill="#b8f423" data-fill-palette-color="primary"></path></g></svg></g></svg></g></svg></g></svg></g><g transform="matrix(1,0,0,1,449.4733221077785,0)"><svg viewBox="0 0 104.70560243222269 132.5966765419355" height="132.5966765419355" width="104.70560243222269"><g><svg xmlns="http://www.w3.org/2000/svg" xmlns:xlink="http://www.w3.org/1999/xlink" version="1.1" x="0" y="0" viewBox="5 0 37.90343052193461 48" enable-background="new 0 0 48 48" xml:space="preserve" height="132.5966765419355" width="104.70560243222269" class="icon-icon-0" data-fill-palette-color="accent" id="icon-0"><g fill="#b8f423" data-fill-palette-color="accent"><path fill="#b8f423" d="M38.4 3.2H33V1C33 0.5 32.6 0 32 0H16C15.5 0 15 0.4 15 1V3.2H9.6C7.1 3.2 5 5.2 5 7.8V43.5C5 45.9 7.1 48 9.6 48H38.3C40.8 48 42.9 45.9 42.9 43.4V7.8C43 5.2 40.9 3.2 38.4 3.2M31 2V6.7H17V2zM41 43.4C41 44.8 39.8 46 38.4 46H9.6C8.2 46 7 44.9 7 43.4V7.8C7 6.4 8.2 5.2 9.6 5.2H15V7.7C15 8.2 15.4 8.7 16 8.7H32C32.5 8.7 33 8.3 33 7.7V5.2H38.3C39.7 5.2 40.9 6.4 40.9 7.8V43.4z" data-fill-palette-color="accent"></path><path fill="#b8f423" d="M36.6 23.4H30.3C29.8 23.4 29.3 23.8 29.3 24.4V30.7C29.3 31.2 29.7 31.7 30.3 31.7H36.6C37.1 31.7 37.6 31.3 37.6 30.7V24.4C37.6 23.8 37.2 23.4 36.6 23.4M35.7 29.6H31.4V25.3H35.7z" data-fill-palette-color="accent"></path><path fill="#b8f423" d="M36.6 34.3H30.3C29.8 34.3 29.3 34.7 29.3 35.3V41.6C29.3 42.1 29.7 42.6 30.3 42.6H36.6C37.1 42.6 37.6 42.2 37.6 41.6V35.3C37.6 34.7 37.2 34.3 36.6 34.3M35.7 40.6H31.4V36.3H35.7z" data-fill-palette-color="accent"></path><path fill="#b8f423" d="M25.9 24.7H11.3C10.8 24.7 10.3 25.1 10.3 25.7 10.3 26.2 10.7 26.7 11.3 26.7H25.9C26.4 26.7 26.9 26.3 26.9 25.7 26.9 25.2 26.4 24.7 25.9 24.7" data-fill-palette-color="accent"></path><path fill="#b8f423" d="M25.9 28.3H16C15.5 28.3 15 28.7 15 29.3 15 29.8 15.4 30.3 16 30.3H25.9C26.4 30.3 26.9 29.9 26.9 29.3 26.9 28.8 26.4 28.3 25.9 28.3" data-fill-palette-color="accent"></path><path fill="#b8f423" d="M25.9 34.3H11.3C10.8 34.3 10.3 34.7 10.3 35.3 10.3 35.8 10.7 36.3 11.3 36.3H25.9C26.4 36.3 26.9 35.9 26.9 35.3S26.4 34.3 25.9 34.3" data-fill-palette-color="accent"></path><path fill="#b8f423" d="M25.9 37.9H16C15.5 37.9 15 38.3 15 38.9 15 39.4 15.4 39.9 16 39.9H25.9C26.4 39.9 26.9 39.5 26.9 38.9S26.4 37.9 25.9 37.9" data-fill-palette-color="accent"></path><path fill="#b8f423" d="M25.9 13.8H11.3C10.8 13.8 10.3 14.2 10.3 14.8 10.3 15.3 10.7 15.8 11.3 15.8H25.9C26.4 15.8 26.9 15.4 26.9 14.8S26.4 13.8 25.9 13.8" data-fill-palette-color="accent"></path><path fill="#b8f423" d="M25.9 17.4H16C15.5 17.4 15 17.8 15 18.4 15 18.9 15.4 19.4 16 19.4H25.9C26.4 19.4 26.9 19 26.9 18.4S26.4 17.4 25.9 17.4" data-fill-palette-color="accent"></path><path fill="#b8f423" d="M36.6 12.5H30.3C29.8 12.5 29.3 12.9 29.3 13.5V19.8C29.3 20.3 29.7 20.8 30.3 20.8H36.6C37.1 20.8 37.6 20.4 37.6 19.8V13.5C37.6 12.9 37.2 12.5 36.6 12.5M35.7 18.7H31.4V14.4H35.7z" data-fill-palette-color="accent"></path></g></svg></g></svg></g></svg></g><defs></defs></svg><rect width="395.52" height="94.63484658749563" fill="none" stroke="none" visibility="hidden"></rect></g></svg></g></svg>